<svg width="56" height="56" viewBox="0 0 56 56" fill="none" xmlns="http://www.w3.org/2000/svg">
<rect x="4" y="4" width="48" height="48" rx="24" fill="#DDD4D5"/>
<rect x="4" y="4" width="48" height="48" rx="24" stroke="#F9F5FF" stroke-width="8"/>
<g clip-path="url(#clip0_1359_1640)">
<path d="M24.5716 26.2857C27.4119 26.2857 29.7144 23.9832 29.7144 21.1429C29.7144 18.3025 27.4119 16 24.5716 16C21.7312 16 19.4287 18.3025 19.4287 21.1429C19.4287 23.9832 21.7312 26.2857 24.5716 26.2857Z" fill="#BCABAC"/>
<path d="M32.1247 27.1426C31.6513 27.1426 31.2675 27.5263 31.2675 27.9997V31.2676H27.9997C27.5263 31.2676 27.1426 31.6514 27.1426 32.1248V34.9105C27.1426 35.3838 27.5263 35.7677 27.9997 35.7677H31.2675V39.1426C31.2675 39.6159 31.6513 39.9997 32.1247 39.9997H34.9103C35.3838 39.9997 35.7675 39.6159 35.7675 39.1426V35.7677H39.1426C39.6159 35.7677 39.9997 35.3838 39.9997 34.9105V32.1248C39.9997 31.6514 39.6159 31.2676 39.1426 31.2676H35.7675V27.9997C35.7675 27.5263 35.3838 27.1426 34.9103 27.1426H32.1247Z" fill="#572D31"/>
<path fill-rule="evenodd" clip-rule="evenodd" d="M28.8195 29.1251C27.5673 28.4091 26.1171 28 24.5714 28C19.8376 28 16 31.8376 16 36.5714C16 37.0447 16.3838 37.4286 16.8571 37.4286H26.3682C25.5447 36.8937 25 35.9659 25 34.9108V32.1251C25 30.4682 26.3431 29.1251 28 29.1251H28.8195Z" fill="#BCABAC"/>
</g>
<defs>
<clipPath id="clip0_1359_1640">
<rect width="24" height="24" fill="white" transform="translate(16 16)"/>
</clipPath>
</defs>
</svg>
