<svg width="56" height="56" viewBox="0 0 56 56" fill="none" xmlns="http://www.w3.org/2000/svg">
<rect x="4" y="4" width="48" height="48" rx="24" fill="#DDD4D5"/>
<rect x="4" y="4" width="48" height="48" rx="24" stroke="#F9F5FF" stroke-width="8"/>
<g clip-path="url(#clip0_1359_197)">
<path d="M18.5653 16.3071C23.0716 16.8417 27.037 18.6162 28 19.5792C28.963 18.6162 32.9284 16.842 37.4347 16.3073C38.8449 16.14 40 17.3021 40 18.7223V32.4366C40 33.8568 38.8394 34.9885 37.4421 35.2422C34.2863 35.8152 31.6616 37.3285 29.9872 38.5248C28.8316 39.3502 27.1672 39.3492 26.0116 38.5237C24.3371 37.3277 21.7129 35.8148 18.5579 35.2419C17.1606 34.9882 16 33.8566 16 32.4363V18.7221C16 17.3019 17.155 16.1398 18.5653 16.3071Z" fill="#BCABAC"/>
<path d="M26.9287 38.9791V18.833C27.5596 19.1864 28.4407 19.1864 29.0716 18.833V38.9794C28.3805 39.1981 27.6199 39.198 26.9287 38.9791Z" fill="#572D31"/>
</g>
<defs>
<clipPath id="clip0_1359_197">
<rect width="24" height="24" fill="white" transform="translate(16 16)"/>
</clipPath>
</defs>
</svg>
