<svg width="56" height="56" viewBox="0 0 56 56" fill="none" xmlns="http://www.w3.org/2000/svg">
<rect x="4" y="4" width="48" height="48" rx="24" fill="#DDD4D5"/>
<rect x="4" y="4" width="48" height="48" rx="24" stroke="#F9F5FF" stroke-width="8"/>
<g clip-path="url(#clip0_1359_3060)">
<path fill-rule="evenodd" clip-rule="evenodd" d="M32.7528 29.8841H36.319C36.8743 29.8751 37.4155 30.06 37.8492 30.407C38.2855 30.7561 38.5857 31.247 38.6973 31.7945L38.698 31.7976L39.9837 38.2262C40.0341 38.478 39.9688 38.7391 39.8061 38.9378C39.6432 39.1363 39.4 39.2515 39.1432 39.2515H29.9594C29.7033 39.2515 29.4606 39.137 29.2978 38.9394C29.1349 38.7417 29.069 38.4815 29.1181 38.2302L30.3732 31.8015L30.3746 31.7945C30.4862 31.247 30.7863 30.7561 31.2226 30.407C31.6564 30.06 32.1976 29.8751 32.7528 29.8841ZM19.7424 29.8841H23.3087C23.8639 29.8751 24.405 30.06 24.8388 30.407C25.2751 30.7561 25.5752 31.247 25.6868 31.7945L25.6875 31.7976L26.9732 38.2262C27.0236 38.478 26.9584 38.7391 26.7956 38.9378C26.6328 39.1363 26.3895 39.2515 26.1327 39.2515H16.9489C16.6928 39.2515 16.4502 39.137 16.2873 38.9394C16.1245 38.7417 16.0586 38.4815 16.1077 38.2302L17.3628 31.8015L17.3642 31.7945C17.4758 31.247 17.7759 30.7561 18.2122 30.407C18.646 30.06 19.1871 29.8751 19.7424 29.8841Z" fill="#BCABAC"/>
<path d="M29.8145 18.139H26.2482C25.693 18.13 25.1519 18.3149 24.7181 18.6619C24.2818 19.0109 23.9817 19.5019 23.8701 20.0494L23.8687 20.0564L22.6135 26.485C22.5645 26.7364 22.6304 26.9965 22.7932 27.1942C22.956 27.3919 23.1987 27.5064 23.4548 27.5064H32.6386C32.8953 27.5064 33.1386 27.3913 33.3013 27.1927C33.4642 26.9941 33.5293 26.733 33.4791 26.4811L32.1933 20.0525L32.1927 20.0494C32.0811 19.5019 31.781 19.0109 31.3447 18.6619C30.9109 18.3149 30.3698 18.13 29.8145 18.139Z" fill="#BCABAC"/>
</g>
<defs>
<clipPath id="clip0_1359_3060">
<rect width="24" height="24" fill="white" transform="translate(16 16)"/>
</clipPath>
</defs>
</svg>
