<svg width="56" height="56" viewBox="0 0 56 56" fill="none" xmlns="http://www.w3.org/2000/svg">
<rect x="4" y="4" width="48" height="48" rx="24" fill="#DDD4D5"/>
<rect x="4" y="4" width="48" height="48" rx="24" stroke="#F9F5FF" stroke-width="8"/>
<g clip-path="url(#clip0_1359_781)">
<path fill-rule="evenodd" clip-rule="evenodd" d="M28 16C21.3726 16 16 21.3726 16 28C16 34.6274 21.3726 40 28 40C34.6274 40 40 34.6274 40 28C40 21.3726 34.6274 16 28 16Z" fill="#BCABAC"/>
<path fill-rule="evenodd" clip-rule="evenodd" d="M31.3448 16.4724C30.4659 16.2179 29.5455 16.0611 28.5962 16.0146C30.6636 19.282 31.9434 23.0255 32.3149 26.9287H23.685C24.0566 23.0255 25.3363 19.282 27.4038 16.0147C26.4544 16.0611 25.534 16.2179 24.6551 16.4725C22.9242 19.6845 21.8561 23.2451 21.5333 26.9287H16.0472C16.0159 27.2816 16 27.639 16 28.0001C16 28.3612 16.0159 28.7186 16.0472 29.0715H21.5333C21.8561 32.7551 22.9242 36.3157 24.6551 39.5277C25.534 39.7823 26.4544 39.9391 27.4038 39.9856C25.3363 36.7182 24.0566 32.9747 23.685 29.0715H32.3149C31.9434 32.9747 30.6636 36.7182 28.5962 39.9856C29.5456 39.9391 30.466 39.7823 31.3448 39.5277C33.0758 36.3157 34.1438 32.7551 34.4666 29.0715H39.9529C39.9841 28.7186 40 28.3612 40 28.0001C40 27.639 39.9841 27.2816 39.9529 26.9287H34.4666C34.1438 23.2451 33.0758 19.6845 31.3448 16.4724Z" fill="#572D31"/>
</g>
<defs>
<clipPath id="clip0_1359_781">
<rect width="24" height="24" fill="white" transform="translate(16 16)"/>
</clipPath>
</defs>
</svg>
