<svg width="56" height="56" viewBox="0 0 56 56" fill="none" xmlns="http://www.w3.org/2000/svg">
<rect x="4" y="4" width="48" height="48" rx="24" fill="#DDD4D5"/>
<rect x="4" y="4" width="48" height="48" rx="24" stroke="#F9F5FF" stroke-width="8"/>
<g clip-path="url(#clip0_1359_1465)">
<path fill-rule="evenodd" clip-rule="evenodd" d="M17.2857 16C16.5756 16 16 16.5756 16 17.2857V22.0338C16 25.5842 18.8782 28.4623 22.4286 28.4623H23.0879C23.798 28.4623 24.3736 27.8867 24.3736 27.1766V17.2857C24.3736 16.5756 23.798 16 23.0879 16H17.2857ZM18.5714 22.0338V18.5714H21.8022V25.8403C19.9699 25.5411 18.5714 23.9507 18.5714 22.0338ZM38.7143 16C39.4243 16 40 16.5756 40 17.2857V22.0336C40 25.584 37.1219 28.4622 33.5714 28.4622H32.9121C32.202 28.4622 31.6264 27.8865 31.6264 27.1765V17.2857C31.6264 16.9447 31.7618 16.6177 32.0029 16.3766C32.2441 16.1355 32.5711 16 32.9121 16H38.7143ZM37.4286 22.0336V18.5714H34.1978V25.8402C36.0302 25.5409 37.4286 23.9506 37.4286 22.0336ZM28 30.8359C28.7101 30.8359 29.2857 31.4116 29.2857 32.1217V37.4286H33.7693C34.4793 37.4286 35.055 38.0042 35.055 38.7143C35.055 39.4243 34.4793 40 33.7693 40H28.045C28.03 40.0005 28.0151 40.0009 28 40.0009C27.9849 40.0009 27.97 40.0005 27.955 40H22.2308C21.5207 40 20.9451 39.4243 20.9451 38.7143C20.9451 38.0042 21.5207 37.4286 22.2308 37.4286H26.7143V32.1217C26.7143 31.4116 27.2899 30.8359 28 30.8359Z" fill="#572D31"/>
<path fill-rule="evenodd" clip-rule="evenodd" d="M21.9997 16.0029C21.5263 16.0029 21.1426 16.3867 21.1426 16.8601V26.2853C21.1426 30.0724 24.2126 33.1424 27.9997 33.1424C31.7868 33.1424 34.8569 30.0724 34.8569 26.2853V16.8601C34.8569 16.6327 34.7665 16.4147 34.6059 16.254C34.4451 16.0932 34.227 16.0029 33.9997 16.0029H21.9997Z" fill="#BCABAC"/>
</g>
<defs>
<clipPath id="clip0_1359_1465">
<rect width="24" height="24" fill="white" transform="translate(16 16)"/>
</clipPath>
</defs>
</svg>
