<svg width="56" height="56" viewBox="0 0 56 56" fill="none" xmlns="http://www.w3.org/2000/svg">
<rect x="4" y="4" width="48" height="48" rx="24" fill="#DDD4D5"/>
<rect x="4" y="4" width="48" height="48" rx="24" stroke="#F9F5FF" stroke-width="8"/>
<path fill-rule="evenodd" clip-rule="evenodd" d="M29.2854 19.9527C29.2854 19.2426 28.7097 18.667 27.9997 18.667C27.2896 18.667 26.714 19.2426 26.714 19.9527V23.1717C26.714 23.8818 27.2896 24.4574 27.9997 24.4574C28.7097 24.4574 29.2854 23.8818 29.2854 23.1717V19.9527ZM21.5617 21.8859C22.0953 21.8859 22.5734 22.2154 22.7633 22.7141L26.787 33.2805C27.0397 33.9441 26.7066 34.6869 26.043 34.9396C25.3794 35.1923 24.6366 34.8592 24.3839 34.1956L21.5617 26.7845L18.7396 34.1956C18.4869 34.8592 17.7441 35.1923 17.0805 34.9396C16.4169 34.6869 16.0838 33.9441 16.3365 33.2805L20.3602 22.7141C20.5501 22.2154 21.0282 21.8859 21.5617 21.8859ZM34.4375 21.8859C34.9712 21.8859 35.4493 22.2154 35.6391 22.7141L39.6628 33.2805C39.9155 33.9441 39.5824 34.6869 38.9188 34.9396C38.2552 35.1923 37.5124 34.8592 37.2597 34.1956L34.4375 26.7845L31.6154 34.1956C31.3627 34.8592 30.6199 35.1923 29.9563 34.9396C29.2927 34.6869 28.9597 33.9441 29.2123 33.2805L33.236 22.7141C33.4259 22.2154 33.904 21.8859 34.4375 21.8859Z" fill="#572D31"/>
<path fill-rule="evenodd" clip-rule="evenodd" d="M19.1472 21.8857C18.4371 21.8857 17.8614 22.4614 17.8614 23.1715C17.8614 23.8815 18.4371 24.4572 19.1472 24.4572H36.8514C37.5615 24.4572 38.1371 23.8815 38.1371 23.1715C38.1371 22.4614 37.5615 21.8857 36.8514 21.8857H19.1472ZM17.5377 32.4523C16.8276 32.4523 16.252 33.0279 16.252 33.7381C16.252 35.1462 16.8113 36.4967 17.8071 37.4923C18.8028 38.488 20.1532 39.0474 21.5614 39.0474C22.9695 39.0474 24.32 38.488 25.3157 37.4923C26.3114 36.4967 26.8708 35.1462 26.8708 33.7381C26.8708 33.0279 26.2952 32.4523 25.5851 32.4523H17.5377ZM30.4135 32.4523C29.7035 32.4523 29.1278 33.0279 29.1278 33.7381C29.1278 35.1462 29.6872 36.4967 30.6829 37.4923C31.6786 38.488 33.0291 39.0474 34.4372 39.0474C35.8453 39.0474 37.1958 38.488 38.1917 37.4923C39.1873 36.4967 39.7467 35.1462 39.7467 33.7381C39.7467 33.0279 39.171 32.4523 38.461 32.4523H30.4135Z" fill="#BCABAC"/>
</svg>
