<svg width="56" height="56" viewBox="0 0 56 56" fill="none" xmlns="http://www.w3.org/2000/svg">
<rect x="4" y="4" width="48" height="48" rx="24" fill="#DDD4D5"/>
<rect x="4" y="4" width="48" height="48" rx="24" stroke="#F9F5FF" stroke-width="8"/>
<g clip-path="url(#clip0_1359_1088)">
<path d="M33.5128 17.2939L22.4866 17.2939C21.7443 17.2939 21.1426 17.8957 21.1426 18.6379V25.3785C21.1426 26.1208 21.7443 26.7225 22.4866 26.7225H33.5128C34.2551 26.7225 34.8568 26.1208 34.8568 25.3785V18.6379C34.8568 17.8957 34.2551 17.2939 33.5128 17.2939Z" fill="#BCABAC"/>
<path fill-rule="evenodd" clip-rule="evenodd" d="M22.4871 18.5792H33.5134C33.5456 18.5792 33.5717 18.6053 33.5717 18.6375V25.3781C33.5717 25.4102 33.5456 25.4363 33.5134 25.4363H22.4871C22.4549 25.4363 22.4289 25.4102 22.4289 25.3781V18.6375C22.4289 18.6053 22.4549 18.5792 22.4871 18.5792ZM33.5134 16.0078L22.4871 16.0078C21.0348 16.0078 19.8574 17.1852 19.8574 18.6375V25.3781C19.8574 26.8304 21.0348 28.0078 22.4871 28.0078H26.7123L26.7124 29.784C26.7124 30.4941 27.2881 31.0697 27.9981 31.0697C28.7082 31.0697 29.2838 30.494 29.2838 29.7839L29.2837 28.0078H33.5134C34.9657 28.0078 36.1431 26.8304 36.1431 25.3781V18.6375C36.1431 17.1852 34.9657 16.0078 33.5134 16.0078Z" fill="#572D31"/>
<path fill-rule="evenodd" clip-rule="evenodd" d="M19.1613 35.2469V38.7058C19.1613 39.416 18.5856 39.9915 17.8756 39.9915C17.1655 39.9915 16.5898 39.416 16.5898 38.7058V32.9353C16.5898 31.83 17.1526 30.8562 18.0072 30.2848C18.4436 29.9436 18.993 29.7402 19.5898 29.7402H36.4122C37.0122 29.7402 37.5642 29.9457 38.0015 30.2902C38.8518 30.8623 39.411 31.8335 39.411 32.9353V38.7058C39.411 39.416 38.8353 39.9915 38.1253 39.9915C37.4152 39.9915 36.8396 39.416 36.8396 38.7058V35.2469H19.1613Z" fill="#BCABAC"/>
</g>
<defs>
<clipPath id="clip0_1359_1088">
<rect width="24" height="24" fill="white" transform="translate(16 16)"/>
</clipPath>
</defs>
</svg>
