<svg width="56" height="56" viewBox="0 0 56 56" fill="none" xmlns="http://www.w3.org/2000/svg">
<rect x="4" y="4" width="48" height="48" rx="24" fill="#DDD4D5"/>
<rect x="4" y="4" width="48" height="48" rx="24" stroke="#F9F5FF" stroke-width="8"/>
<g clip-path="url(#clip0_1359_1168)">
<path d="M18.5714 16C17.1933 16 16 17.0718 16 18.4856V28.0859C16 29.4996 17.1933 30.5714 18.5714 30.5714H37.4286C38.8067 30.5714 40 29.4996 40 28.0859V18.4856C40 17.0718 38.8067 16 37.4286 16H18.5714Z" fill="#BCABAC"/>
<path fill-rule="evenodd" clip-rule="evenodd" d="M24.7854 34.0001C24.7854 33.4084 24.3057 32.9287 23.714 32.9287C23.1223 32.9287 22.6426 33.4084 22.6426 34.0001V37.4287C22.6426 38.0205 23.1223 38.5001 23.714 38.5001C24.3057 38.5001 24.7854 38.0205 24.7854 37.4287V34.0001ZM32.2854 32.9287C32.8772 32.9287 33.3569 33.4084 33.3569 34.0001V37.4287C33.3569 38.0205 32.8772 38.5001 32.2854 38.5001C31.6937 38.5001 31.214 38.0205 31.214 37.4287V34.0001C31.214 33.4084 31.6937 32.9287 32.2854 32.9287ZM27.9997 34.2144C28.5915 34.2144 29.0711 34.6941 29.0711 35.2859V38.7144C29.0711 39.3062 28.5915 39.7859 27.9997 39.7859C27.408 39.7859 26.9283 39.3062 26.9283 38.7144V35.2859C26.9283 34.6941 27.408 34.2144 27.9997 34.2144Z" fill="#572D31"/>
<path fill-rule="evenodd" clip-rule="evenodd" d="M27.9992 26.7146C29.8927 26.7146 31.4277 25.1795 31.4277 23.286C31.4277 21.3924 29.8927 19.8574 27.9992 19.8574C26.1056 19.8574 24.5706 21.3924 24.5706 23.286C24.5706 25.1795 26.1056 26.7146 27.9992 26.7146ZM20.7134 22.4289C21.4235 22.4289 21.9992 23.0045 21.9992 23.7146C21.9992 24.4246 21.4235 25.0003 20.7134 25.0003C20.0034 25.0003 19.4277 24.4246 19.4277 23.7146C19.4277 23.0045 20.0034 22.4289 20.7134 22.4289ZM36.5706 23.7146C36.5706 23.0045 35.9949 22.4289 35.2849 22.4289C34.5748 22.4289 33.9992 23.0045 33.9992 23.7146C33.9992 24.4246 34.5748 25.0003 35.2849 25.0003C35.9949 25.0003 36.5706 24.4246 36.5706 23.7146Z" fill="#572D31"/>
</g>
<defs>
<clipPath id="clip0_1359_1168">
<rect width="24" height="24" fill="white" transform="translate(16 16)"/>
</clipPath>
</defs>
</svg>
