<svg width="56" height="56" viewBox="0 0 56 56" fill="none" xmlns="http://www.w3.org/2000/svg">
<rect x="4" y="4" width="48" height="48" rx="24" fill="#DDD4D5"/>
<rect x="4" y="4" width="48" height="48" rx="24" stroke="#F9F5FF" stroke-width="8"/>
<path fill-rule="evenodd" clip-rule="evenodd" d="M19.8032 16C18.6498 16 17.7148 16.935 17.7148 18.0884V25.9238C17.7148 27.0772 18.6498 28.0122 19.8032 28.0122H36.1979C37.3513 28.0122 38.2863 27.0772 38.2863 25.9238V18.0884C38.2863 16.935 37.3513 16 36.1979 16H19.8032Z" fill="#BCABAC"/>
<path fill-rule="evenodd" clip-rule="evenodd" d="M28.0002 22.3567C29.2787 22.3567 30.3153 21.3202 30.3153 20.0416C30.3153 18.7631 29.2787 17.7266 28.0002 17.7266C26.7216 17.7266 25.6851 18.7631 25.6851 20.0416C25.6851 21.3202 26.7216 22.3567 28.0002 22.3567ZM23.9299 27.3278C24.2561 25.3746 25.9542 23.8859 28.0001 23.8859C30.0459 23.8859 31.744 25.3746 32.0703 27.3278C32.1329 27.7024 31.8189 28.0127 31.4391 28.0127H24.5611C24.1812 28.0127 23.8673 27.7024 23.9299 27.3278Z" fill="#572D31"/>
<path fill-rule="evenodd" clip-rule="evenodd" d="M21.9658 34.6623C23.3304 34.6623 24.4366 33.5561 24.4366 32.1915C24.4366 30.8269 23.3304 29.7207 21.9658 29.7207C20.6012 29.7207 19.495 30.8269 19.495 32.1915C19.495 33.5561 20.6012 34.6623 21.9658 34.6623ZM34.0444 34.6623C35.4089 34.6623 36.5152 33.5561 36.5152 32.1915C36.5152 30.8269 35.4089 29.7207 34.0444 29.7207C32.6798 29.7207 31.5736 30.8269 31.5736 32.1915C31.5736 33.5561 32.6798 34.6623 34.0444 34.6623ZM21.9657 35.9967C19.9812 35.9967 18.334 37.4406 18.0175 39.3353C17.9568 39.6987 18.2613 39.9997 18.6298 39.9997H25.3016C25.67 39.9997 25.9745 39.6987 25.9138 39.3353C25.5974 37.4406 23.9502 35.9967 21.9657 35.9967ZM30.0962 39.3353C30.4127 37.4406 32.0599 35.9967 34.0444 35.9967C36.0288 35.9967 37.6761 37.4406 37.9925 39.3353C38.0532 39.6987 37.7488 39.9997 37.3802 39.9997H30.7085C30.34 39.9997 30.0355 39.6987 30.0962 39.3353Z" fill="#572D31"/>
</svg>
