<svg width="56" height="56" viewBox="0 0 56 56" fill="none" xmlns="http://www.w3.org/2000/svg">
<rect x="4" y="4" width="48" height="48" rx="24" fill="#DDD4D5"/>
<rect x="4" y="4" width="48" height="48" rx="24" stroke="#F9F5FF" stroke-width="8"/>
<g clip-path="url(#clip0_1359_2246)">
<path d="M19.4277 38.2849V27.9992L27.9992 19.4277L36.5706 27.9992V38.2849C36.5706 39.2317 35.8031 39.9992 34.8563 39.9992H21.142C20.1953 39.9992 19.4277 39.2317 19.4277 38.2849Z" fill="#BCABAC"/>
<path fill-rule="evenodd" clip-rule="evenodd" d="M26.7878 18.216C27.4573 17.5465 28.5427 17.5465 29.2122 18.216L39.4979 28.5017C40.1673 29.1712 40.1673 30.2566 39.4979 30.9261C38.8285 31.5955 37.743 31.5955 37.0735 30.9261L28 21.8525L18.9265 30.9261C18.257 31.5955 17.1716 31.5955 16.5021 30.9261C15.8326 30.2566 15.8326 29.1712 16.5021 28.5017L26.7878 18.216Z" fill="#572D31"/>
</g>
<defs>
<clipPath id="clip0_1359_2246">
<rect width="24" height="24" fill="white" transform="translate(16 16)"/>
</clipPath>
</defs>
</svg>
