<svg width="56" height="56" viewBox="0 0 56 56" fill="none" xmlns="http://www.w3.org/2000/svg">
<rect x="4" y="4" width="48" height="48" rx="24" fill="#DDD4D5"/>
<rect x="4" y="4" width="48" height="48" rx="24" stroke="#F9F5FF" stroke-width="8"/>
<path fill-rule="evenodd" clip-rule="evenodd" d="M19.8023 16C18.6489 16 17.7139 16.935 17.7139 18.0884V25.9238C17.7139 27.0772 18.6489 28.0122 19.8023 28.0122H36.197C37.3503 28.0122 38.2853 27.0772 38.2853 25.9238V18.0884C38.2853 16.935 37.3503 16 36.197 16H19.8023Z" fill="#BCABAC"/>
<path fill-rule="evenodd" clip-rule="evenodd" d="M28.0002 22.3567C29.2787 22.3567 30.3153 21.3202 30.3153 20.0416C30.3153 18.7631 29.2787 17.7266 28.0002 17.7266C26.7216 17.7266 25.6851 18.7631 25.6851 20.0416C25.6851 21.3202 26.7216 22.3567 28.0002 22.3567ZM23.9299 27.3278C24.2561 25.3746 25.9542 23.8859 28.0001 23.8859C30.0459 23.8859 31.744 25.3746 32.0703 27.3278C32.1329 27.7024 31.8189 28.0127 31.4391 28.0127H24.5611C24.1812 28.0127 23.8673 27.7024 23.9299 27.3278Z" fill="#572D31"/>
<path fill-rule="evenodd" clip-rule="evenodd" d="M21.9649 34.6623C23.3294 34.6623 24.4357 33.5561 24.4357 32.1915C24.4357 30.8269 23.3294 29.7207 21.9649 29.7207C20.6002 29.7207 19.494 30.8269 19.494 32.1915C19.494 33.5561 20.6002 34.6623 21.9649 34.6623ZM34.0434 34.6623C35.408 34.6623 36.5142 33.5561 36.5142 32.1915C36.5142 30.8269 35.408 29.7207 34.0434 29.7207C32.6788 29.7207 31.5726 30.8269 31.5726 32.1915C31.5726 33.5561 32.6788 34.6623 34.0434 34.6623ZM21.9647 35.9967C19.9802 35.9967 18.333 37.4406 18.0165 39.3353C17.9558 39.6987 18.2604 39.9997 18.6288 39.9997H25.3006C25.669 39.9997 25.9736 39.6987 25.9129 39.3353C25.5964 37.4406 23.9492 35.9967 21.9647 35.9967ZM30.0952 39.3353C30.4117 37.4406 32.0589 35.9967 34.0434 35.9967C36.0279 35.9967 37.6751 37.4406 37.9916 39.3353C38.0523 39.6987 37.7478 39.9997 37.3792 39.9997H30.7075C30.3391 39.9997 30.0345 39.6987 30.0952 39.3353Z" fill="#572D31"/>
</svg>
