<svg xmlns="http://www.w3.org/2000/svg" width="14" height="15" viewBox="0 0 14 15" fill="none">
  <path fill-rule="evenodd" clip-rule="evenodd" d="M3.5 0.5C4.05228 0.5 4.5 0.947715 4.5 1.5V2.5H9.50009V1.5C9.50009 0.947715 9.94781 0.5 10.5001 0.5C11.0524 0.5 11.5001 0.947715 11.5001 1.5V2.5H12.5C13.3284 2.5 14 3.17157 14 4V5H0V4C0 3.17157 0.671573 2.5 1.5 2.5H2.5V1.5C2.5 0.947715 2.94772 0.5 3.5 0.5Z" fill="#572D31"/>
  <path d="M0 5H14V13C14 13.8284 13.3284 14.5 12.5 14.5H1.5C0.671573 14.5 0 13.8284 0 13V5Z" fill="#BCABAC"/>
  <path fill-rule="evenodd" clip-rule="evenodd" d="M7.75 7.25C7.75 6.83579 7.41421 6.5 7 6.5C6.58579 6.5 6.25 6.83579 6.25 7.25V9H4.5C4.08579 9 3.75 9.33579 3.75 9.75C3.75 10.1642 4.08579 10.5 4.5 10.5H6.25V12.25C6.25 12.6642 6.58579 13 7 13C7.41421 13 7.75 12.6642 7.75 12.25V10.5H9.5C9.91421 10.5 10.25 10.1642 10.25 9.75C10.25 9.33579 9.91421 9 9.5 9H7.75V7.25Z" fill="#572D31"/>
</svg>