<svg xmlns="http://www.w3.org/2000/svg" width="12" height="15" viewBox="0 0 12 15" fill="none">
  <path d="M3 2C3 1.17157 3.67157 0.5 4.5 0.5H10C10.8284 0.5 11.5 1.17157 11.5 2V10.5C11.5 11.3284 10.8284 12 10 12H4.5C3.67157 12 3 11.3284 3 10.5V2Z" fill="#572D31"/>
  <path d="M0.5 4.5C0.5 3.67157 1.17157 3 2 3H7.5C8.32843 3 9 3.67157 9 4.5V13C9 13.8284 8.32843 14.5 7.5 14.5H2C1.17157 14.5 0.5 13.8284 0.5 13V4.5Z" fill="#BCABAC"/>
  <path fill-rule="evenodd" clip-rule="evenodd" d="M2.12478 5.5C2.12478 5.15482 2.40461 4.875 2.74978 4.875H6.74978C7.09496 4.875 7.37478 5.15482 7.37478 5.5C7.37478 5.84518 7.09496 6.125 6.74978 6.125H2.74978C2.40461 6.125 2.12478 5.84518 2.12478 5.5ZM2.12527 8C2.12527 7.65482 2.40509 7.375 2.75027 7.375H6.75027C7.09545 7.375 7.37527 7.65482 7.37527 8C7.37527 8.34518 7.09545 8.625 6.75027 8.625H2.75027C2.40509 8.625 2.12527 8.34518 2.12527 8ZM2.74951 9.875C2.40433 9.875 2.12451 10.1548 2.12451 10.5C2.12451 10.8452 2.40433 11.125 2.74951 11.125H4.74951C5.09469 11.125 5.37451 10.8452 5.37451 10.5C5.37451 10.1548 5.09469 9.875 4.74951 9.875H2.74951Z" fill="#572D31"/>
</svg>